<svg width="26" height="26" viewBox="0 0 26 26" fill="none" xmlns="http://www.w3.org/2000/svg">
<path d="M1.28595 24.7128C2.14435 25.5717 3.26619 26 4.39243 26C5.51647 26 6.63831 25.5717 7.4967 24.715L13.0005 19.2105L18.5044 24.715C19.3628 25.5717 20.4846 26 21.6087 26C22.7327 26 23.8568 25.5717 24.7151 24.7106C26.4297 22.9951 26.4276 20.2143 24.713 18.4988L19.2135 13.0008L24.713 7.50067C26.4276 5.78516 26.4297 3.00213 24.7151 1.28663C23.0005 -0.428876 20.2212 -0.42668 18.5066 1.28443L13.0005 6.78898L7.4967 1.28663C5.7821 -0.428876 3.00274 -0.428876 1.28595 1.28663C-0.42865 3.00213 -0.42865 5.78516 1.28595 7.49847L6.7854 12.9986L1.28595 18.4988C-0.42865 20.2143 -0.42865 22.9951 1.28595 24.7128Z" fill="#0D47A1"/>
</svg>
