<svg width="91" height="91" viewBox="0 0 91 91" fill="none" xmlns="http://www.w3.org/2000/svg">
<rect width="91" height="91" rx="20" fill="#0D47A1"/>
<path d="M27.0773 64.9207C28.4639 66.3081 30.2762 67 32.0955 67C33.9112 67 35.7234 66.3081 37.1101 64.9243L46.0009 56.0323L54.8917 64.9243C56.2783 66.3081 58.0906 67 59.9063 67C61.7221 67 63.5378 66.3081 64.9245 64.9172C67.6942 62.146 67.6907 57.6539 64.9209 54.8827L56.0372 46.0013L64.9209 37.1165C67.6907 34.3453 67.6942 29.8496 64.9245 27.0784C62.1547 24.3072 57.665 24.3107 54.8953 27.0749L46.0009 35.9668L37.1101 27.0784C34.3403 24.3072 29.8506 24.3072 27.0773 27.0784C24.3076 29.8496 24.3076 34.3453 27.0773 37.1129L35.961 45.9978L27.0773 54.8827C24.3076 57.6539 24.3076 62.146 27.0773 64.9207Z" fill="white"/>
</svg>
