<svg width="172" height="174" viewBox="0 0 172 174" fill="none" xmlns="http://www.w3.org/2000/svg">
<path d="M148.232 139.688C157.405 139.688 164.823 147.105 164.823 156.242C164.823 165.416 157.405 172.833 148.232 172.833C139.058 172.833 131.641 165.416 131.641 156.242C131.641 147.105 139.058 139.688 148.232 139.688Z" fill="#42A5F5"/>
<path d="M85.9534 139.688C95.0909 139.688 102.544 147.105 102.544 156.242C102.544 165.416 95.0909 172.833 85.9534 172.833C76.7801 172.833 69.3626 165.416 69.3626 156.242C69.3626 147.105 76.7801 139.688 85.9534 139.688Z" fill="#42A5F5"/>
<path d="M23.7826 102.591C32.9454 102.591 40.3734 95.1628 40.3734 86C40.3734 76.8371 32.9454 69.4091 23.7826 69.4091C14.6197 69.4091 7.19174 76.8371 7.19174 86C7.19174 95.1628 14.6197 102.591 23.7826 102.591Z" fill="#42A5F5"/>
<path d="M23.7467 7.16666C32.9201 7.16666 40.3376 14.5842 40.3376 23.7575C40.3376 32.895 32.9201 40.3125 23.7467 40.3125C14.5734 40.3125 7.15591 32.895 7.15591 23.7575C7.15591 14.5842 14.5734 7.16666 23.7467 7.16666Z" fill="#42A5F5"/>
<path d="M85.9534 7.16666C95.0909 7.16666 102.544 14.5842 102.544 23.7575C102.544 32.895 95.0909 40.3125 85.9534 40.3125C76.7801 40.3125 69.3626 32.895 69.3626 23.7575C69.3626 14.5842 76.7801 7.16666 85.9534 7.16666Z" fill="#42A5F5"/>
<path d="M66.8793 105.11C68.2804 106.511 70.1115 107.21 71.9497 107.21C73.7844 107.21 75.6155 106.511 77.0166 105.114L86 96.1337L94.9834 105.114C96.3845 106.511 98.2156 107.21 100.05 107.21C101.885 107.21 103.72 106.511 105.117 105.11C107.916 102.311 107.916 97.7713 105.117 94.9727L96.1372 86L105.113 77.0273C107.912 74.2288 107.912 69.6887 105.113 66.8901C102.315 64.0951 97.7784 64.0915 94.9762 66.8865L85.9928 75.8664L77.0094 66.8865C74.2072 64.0915 69.6707 64.0951 66.8722 66.8901C64.0736 69.6887 64.0736 74.2288 66.8722 77.0273L75.8592 86L66.8829 94.9727C64.0807 97.7713 64.0807 102.311 66.8793 105.11Z" fill="white"/>
<path d="M167.413 66.8901C164.615 64.0951 160.078 64.0915 157.276 66.8865L148.293 75.8664L139.306 66.8865C136.507 64.0915 131.967 64.0951 129.172 66.8901C126.373 69.6887 126.377 74.2288 129.176 77.0273L138.152 86L129.176 94.9727C126.377 97.7713 126.373 102.311 129.172 105.11C130.573 106.511 132.404 107.21 134.242 107.21C136.077 107.21 137.908 106.511 139.309 105.114L148.296 96.1337L157.28 105.114C158.681 106.511 160.512 107.21 162.347 107.21C164.181 107.21 166.016 106.511 167.413 105.11C170.212 102.311 170.212 97.7713 167.413 94.9727L158.434 86L167.413 77.0273C170.208 74.2288 170.208 69.6887 167.413 66.8901Z" fill="white"/>
<path d="M23.8005 62.2497C10.7034 62.2497 0.0465698 72.9029 0.0465698 85.9964C0.0465698 99.0935 10.7034 109.75 23.8005 109.75C36.9011 109.75 47.558 99.0935 47.558 85.9964C47.5544 72.9029 36.8976 62.2497 23.8005 62.2497ZM23.8005 95.417C18.6047 95.417 14.3799 91.1887 14.3799 85.9964C14.3799 80.8078 18.6047 76.583 23.8005 76.583C28.9963 76.583 33.2247 80.8078 33.2247 85.9964C33.2211 91.1887 28.9963 95.417 23.8005 95.417Z" fill="white"/>
<path d="M42.8674 131.143C40.0688 128.345 35.5323 128.345 32.7302 131.143L23.7468 140.12L14.7633 131.14C11.9648 128.348 7.42826 128.345 4.62968 131.143C1.8311 133.942 1.83468 138.482 4.63326 141.281L13.6095 150.25L4.63326 159.219C1.83468 162.014 1.8311 166.554 4.62968 169.352C6.03076 170.757 7.86543 171.456 9.7001 171.456C11.5312 171.456 13.3658 170.757 14.7669 169.36L23.7503 160.383L32.7338 169.36C34.1313 170.757 35.9659 171.456 37.8006 171.456C39.6353 171.456 41.4699 170.757 42.871 169.356C45.6696 166.557 45.666 162.017 42.8674 159.219L33.8912 150.25L42.8674 141.277C45.666 138.482 45.666 133.942 42.8674 131.143Z" fill="#0D47A1"/>
<path d="M129.125 42.0218C130.527 43.4229 132.358 44.1216 134.196 44.1216C136.031 44.1216 137.862 43.4229 139.263 42.0254L148.246 33.0455L157.229 42.0254C158.631 43.4229 160.462 44.1216 162.296 44.1216C164.131 44.1216 165.966 43.4229 167.367 42.0182C170.165 39.2196 170.162 34.6831 167.363 31.8845L158.387 22.9154L167.363 13.9428C170.162 11.1442 170.165 6.60409 167.367 3.80551C164.568 1.00693 160.032 1.01051 157.233 3.80193L148.246 12.7818L139.263 3.80551C136.464 1.00693 131.928 1.00693 129.125 3.80551C126.327 6.60409 126.327 11.1442 129.125 13.9392L138.102 22.9118L129.125 31.8845C126.327 34.6831 126.327 39.2196 129.125 42.0218Z" fill="white"/>
<path d="M85.9498 0C72.8492 0 62.1923 10.6532 62.1923 23.7432C62.1923 36.8402 72.8492 47.4971 85.9498 47.4971C99.0505 47.4971 109.707 36.8402 109.707 23.7432C109.707 10.6532 99.0505 0 85.9498 0ZM85.9498 33.1637C80.754 33.1637 76.5257 28.9354 76.5257 23.7432C76.5257 18.5545 80.754 14.3333 85.9498 14.3333C91.1457 14.3333 95.374 18.5545 95.374 23.7432C95.374 28.9354 91.1457 33.1637 85.9498 33.1637Z" fill="white"/>
<path d="M23.7539 47.4971C36.8546 47.4971 47.5114 36.8402 47.5114 23.7432C47.5114 10.6532 36.8546 0 23.7539 0C10.6568 0 9.03097e-07 10.6532 9.03097e-07 23.7432C-0.00358243 36.8402 10.6568 47.4971 23.7539 47.4971ZM23.7539 14.3333C28.9498 14.3333 33.1781 18.5545 33.1781 23.7432C33.1781 28.9354 28.9498 33.1637 23.7539 33.1637C18.5581 33.1637 14.3333 28.9354 14.3333 23.7432C14.3298 18.5545 18.5581 14.3333 23.7539 14.3333Z" fill="white"/>
<path d="M85.9498 126.503C72.8492 126.503 62.1923 137.16 62.1923 150.257C62.1923 163.347 72.8492 174 85.9498 174C99.0505 174 109.707 163.347 109.707 150.257C109.707 137.16 99.0505 126.503 85.9498 126.503ZM85.9498 159.667C80.754 159.667 76.5257 155.445 76.5257 150.257C76.5257 145.065 80.754 140.836 85.9498 140.836C91.1457 140.836 95.374 145.065 95.374 150.257C95.374 155.445 91.1457 159.667 85.9498 159.667Z" fill="#0D47A1"/>
<path d="M148.243 126.503C135.142 126.503 124.485 137.16 124.485 150.257C124.485 163.347 135.142 174 148.243 174C161.343 174 172 163.347 172 150.257C171.996 137.16 161.34 126.503 148.243 126.503ZM148.243 159.667C143.047 159.667 138.818 155.445 138.818 150.257C138.818 145.065 143.047 140.836 148.243 140.836C153.438 140.836 157.667 145.065 157.667 150.257C157.663 155.445 153.438 159.667 148.243 159.667Z" fill="#0D47A1"/>
</svg>
