<svg width="39" height="41" viewBox="0 0 39 41" fill="none" xmlns="http://www.w3.org/2000/svg">
<path d="M36.3799 21.8309C35.1142 21.6383 33.9901 22.5059 33.8086 23.7428C33.3527 26.8496 31.9188 29.6842 29.6618 31.9412C23.9173 37.6857 14.5774 37.6812 8.83518 31.9412C3.09412 26.1991 3.09412 16.8557 8.83518 11.1146C10.9948 8.95615 13.7211 7.54881 16.7723 7.0365C18.0845 6.78748 19.4952 6.74442 20.959 6.91029C22.9688 7.14163 24.8396 7.80848 26.5467 8.78757L23.5967 9.29128C22.3643 9.50268 21.5343 10.6732 21.7468 11.9068C21.9349 13.0109 22.8932 13.7909 23.9774 13.7909C24.1036 13.7909 24.2318 13.7809 24.3624 13.7587L32.2707 12.4066C32.8615 12.3049 33.3903 11.9729 33.7379 11.4817C34.0853 10.9916 34.2226 10.383 34.1206 9.79L32.7663 1.88275C32.5583 0.650338 31.4031 -0.175123 30.1508 0.0317522C28.9184 0.243159 28.0884 1.41485 28.3009 2.64839L28.6573 4.7296C26.4642 3.49923 24.0449 2.70323 21.4745 2.4073C19.5494 2.18819 17.6819 2.24914 15.9725 2.57656C12.0371 3.23593 8.46131 5.08036 5.631 7.91045C-1.877 15.4184 -1.877 27.6352 5.631 35.1452C9.38488 38.9002 14.3173 40.7768 19.2485 40.7768C24.1809 40.7768 29.1107 38.9004 32.866 35.1452C35.8157 32.1955 37.6921 28.4803 38.2916 24.4022C38.4734 23.163 37.6169 22.0122 36.3799 21.8309Z" fill="#0D47A1"/>
</svg>
