<svg width="91" height="91" viewBox="0 0 91 91" fill="none" xmlns="http://www.w3.org/2000/svg">
<rect width="91" height="91" rx="20" fill="#42A5F5"/>
<path d="M44.7611 29.1667C53.8986 29.1667 61.3519 36.5842 61.3519 45.7575C61.3519 54.895 53.8986 62.3125 44.7611 62.3125C35.5877 62.3125 28.1702 54.895 28.1702 45.7575C28.1702 36.5842 35.5877 29.1667 44.7611 29.1667Z" fill="#42A5F5"/>
<path d="M45.5 22C32.5413 22 22 32.5418 22 45.4947C22 58.4547 32.5413 69 45.5 69C58.4587 69 69 58.4547 69 45.4947C69 32.5418 58.4587 22 45.5 22ZM45.5 54.8167C40.3605 54.8167 36.178 50.6326 36.178 45.4947C36.178 40.3603 40.3605 36.1833 45.5 36.1833C50.6395 36.1833 54.822 40.3603 54.822 45.4947C54.822 50.6326 50.6395 54.8167 45.5 54.8167Z" fill="white"/>
</svg>
